# xmcd
#
# Track frame offsets:
#	150
#	17090
#	33297
#	53114
#	67735
#	81424
#	96434
#	113916
#	132146
#	148792
#	162931
#	177990
#	193736
#	212035
#	229384
#	243317
#	258361
#	272992
#
# Disc length: 3932 seconds
#
# Revision: 1
# Processed by: cddbd v1.5.2PL0 Copyright (c) Steve Scherf et al.
# Submitted via: audiograbber 1.83.01
#
DISCID=060f5a12
DTITLE=Various Artist - Suomi-Hitit Vol. 1
DYEAR=1999
DGENRE=Pop
TTITLE0=Kari Tapio - Juna Kulkee
TTITLE1=Anna Eriksson - Odota Mua
TTITLE2=Finlanders - Enemmän Kuin Milloinkaan
TTITLE3=Tomi Markkola - Rauta Kauhavan
TTITLE4=Sanna Pietiäinen - Sinä Se Oot
TTITLE5=Unelmavävyt - Kotini Maailma
TTITLE6=Juice and Mikko - Mä Lähden Maalle
TTITLE7=Johanna Debreczeni - Parempaa
TTITLE8=Tomi Markkola - En Mitään Pyydä
TTITLE9=Maarit Peltoniemi - Pelkällä Vaistolla
TTITLE10=Kari Tapio - En Odota Huomiseen
TTITLE11=Anna Eriksson - Olen Kaunis
TTITLE12=Finlanders - Mitä Elämä Voi Antaa
TTITLE13=Maarit Peltoniemi - Onnenmaa
TTITLE14=Anita Hirvonen - Älä Tule Myöhään
TTITLE15=Mikko Mäkeläinen - En Ole Hän
TTITLE16=Anita Hirvonen - Kesän Laulut
TTITLE17=Sanna Pietiäinen - Vain Hetki Tää
EXTD=TR.
EXTT0=
EXTT1=
EXTT2=
EXTT3=
EXTT4=
EXTT5=
EXTT6=
EXTT7=
EXTT8=
EXTT9=
EXTT10=
EXTT11=
EXTT12=
EXTT13=
EXTT14=
EXTT15=
EXTT16=
EXTT17=
PLAYORDER=
